<svg vertion="1.1" xmlns="https://www.w3.org/2000/svg" text-anchor="middle" dominant-baseline="middle" count="39" width="790" height="390" font-size="24" stroke-width="2" stroke="yellow" fill="purple" transform="[object SVGTransformList]"><g><rect x="240" y="20" width="130" height="50" rx="4" ry="4" pid="p1" class="p1" text="p2" style="cursor: ne-resize;" ship="[{&quot;pid&quot;:&quot;p26&quot;,&quot;which&quot;:0,&quot;anchor&quot;:8},{&quot;pid&quot;:&quot;p27&quot;,&quot;which&quot;:0,&quot;anchor&quot;:8},{&quot;pid&quot;:&quot;p28&quot;,&quot;which&quot;:0,&quot;anchor&quot;:8}]" fill="red"></rect><text x="305" y="45" pid="p2" class="p2" style="cursor: n-resize;">com</text><rect width="130" height="50" rx="4" ry="4" x="160" y="220" pid="p3" class="p3" text="p4" style="cursor: s-resize;" ship="[{&quot;pid&quot;:&quot;p24&quot;,&quot;which&quot;:1,&quot;anchor&quot;:2}]"></rect><text x="225" y="245" pid="p4" class="p4" style="cursor: e-resize;">golang</text><rect width="130" height="50" rx="4" ry="4" x="480" y="220" pid="p5" class="p5" text="p18" style="cursor: e-resize;" ship="[{&quot;pid&quot;:&quot;p22&quot;,&quot;which&quot;:1,&quot;anchor&quot;:2}]"></rect><rect width="130" height="50" rx="4" ry="4" x="240" y="320" pid="p7" class="p7" text="p8" style="cursor: e-resize;" ship="[{&quot;pid&quot;:&quot;p21&quot;,&quot;which&quot;:1,&quot;anchor&quot;:2},{&quot;pid&quot;:&quot;p35&quot;,&quot;which&quot;:0,&quot;anchor&quot;:6}]" fill="red"></rect><text x="305" y="345" pid="p8" class="p8" style="cursor: se-resize;">remote</text><rect width="130" height="50" rx="4" ry="4" x="560" y="120" pid="p9" class="p9" text="p10" style="cursor: e-resize;" ship="[{&quot;pid&quot;:&quot;p22&quot;,&quot;which&quot;:0,&quot;anchor&quot;:8},{&quot;pid&quot;:&quot;p23&quot;,&quot;which&quot;:0,&quot;anchor&quot;:8},{&quot;pid&quot;:&quot;p27&quot;,&quot;which&quot;:1,&quot;anchor&quot;:2}]" fill="red"></rect><text x="625" y="145" pid="p10" class="p10" style="cursor: e-resize;">macos</text><rect width="130" height="50" rx="4" ry="4" x="240" y="120" pid="p11" class="p11" text="p12" style="cursor: nw-resize;" ship="[{&quot;pid&quot;:&quot;p21&quot;,&quot;which&quot;:0,&quot;anchor&quot;:8},{&quot;pid&quot;:&quot;p24&quot;,&quot;which&quot;:0,&quot;anchor&quot;:8},{&quot;pid&quot;:&quot;p25&quot;,&quot;which&quot;:0,&quot;anchor&quot;:8},{&quot;pid&quot;:&quot;p26&quot;,&quot;which&quot;:1,&quot;anchor&quot;:2},{&quot;pid&quot;:&quot;p32&quot;,&quot;which&quot;:1,&quot;anchor&quot;:4}]" fill="red"></rect><text x="305" y="145" pid="p12" class="p12" style="cursor: s-resize;">centos</text><rect width="130" height="50" rx="4" ry="4" x="50" y="120" pid="p13" class="p13" text="p14" style="cursor: e-resize;" ship="[{&quot;pid&quot;:&quot;p28&quot;,&quot;which&quot;:1,&quot;anchor&quot;:2},{&quot;pid&quot;:&quot;p31&quot;,&quot;which&quot;:0,&quot;anchor&quot;:8},{&quot;pid&quot;:&quot;p32&quot;,&quot;which&quot;:0,&quot;anchor&quot;:6}]" fill="red"></rect><text x="115" y="145" pid="p14" class="p14" style="cursor: ne-resize;" fill="blue">windows</text><rect width="130" height="50" rx="4" ry="4" x="320" y="220" pid="p15" class="p15" text="p17" style="cursor: s-resize;" ship="[{&quot;pid&quot;:&quot;p25&quot;,&quot;which&quot;:1,&quot;anchor&quot;:2}]"></rect><text x="385" y="245" pid="p17" class="p17" style="cursor: se-resize;">redis</text><text x="545" y="245" pid="p18" class="p18" style="cursor: move;">cook</text><rect width="130" height="50" rx="4" ry="4" x="640" y="220" pid="p19" class="p19" text="p20" style="cursor: move;" ship="[{&quot;pid&quot;:&quot;p23&quot;,&quot;which&quot;:1,&quot;anchor&quot;:2}]"></rect><text x="705" y="245" pid="p20" class="p20" style="cursor: ne-resize;">love</text><line x1="305" y1="170" x2="305" y2="320" pid="p21" class="p21" style="cursor: move;"></line><line x1="625" y1="170" x2="545" y2="220" pid="p22" class="p22"></line><line x1="625" y1="170" x2="705" y2="220" pid="p23" class="p23" style="cursor: move;"></line><line x1="305" y1="170" x2="225" y2="220" pid="p24" class="p24" style="cursor: move;"></line><line x1="305" y1="170" x2="385" y2="220" pid="p25" class="p25" style="cursor: move;"></line><line x1="305" y1="70" x2="305" y2="120" pid="p26" class="p26" style="cursor: ne-resize;"></line><line x1="305" y1="70" x2="625" y2="120" pid="p27" class="p27" style="cursor: move;"></line><line x1="305" y1="70" x2="115" y2="120" pid="p28" class="p28"></line><rect width="130" height="50" rx="4" ry="4" x="10" y="220" pid="p29" class="p29" text="p30" style="cursor: n-resize;" ship="[{&quot;pid&quot;:&quot;p31&quot;,&quot;which&quot;:1,&quot;anchor&quot;:2}]"></rect><text x="75" y="245" pid="p30" class="p30" style="cursor: ne-resize;">chrome</text><line x1="115" y1="170" x2="75" y2="220" pid="p31" class="p31"></line><g></g></g><line x1="180" y1="145" x2="240" y2="145" pid="p32" class="p32"></line><rect width="230" height="50" rx="4" ry="4" x="410" y="320" pid="p33" class="p33" text="p34" style="cursor: e-resize;" ship="[{&quot;pid&quot;:&quot;p35&quot;,&quot;which&quot;:1,&quot;anchor&quot;:4}]"></rect><text x="525" y="345" pid="p34" class="p34" style="cursor: se-resize;">update-server</text><line x1="370" y1="345" x2="410" y2="345" pid="p35" class="p35"></line><g></g></svg>