<svg vertion="1.1" xmlns="https://www.w3.org/2000/svg" text-anchor="middle" dominant-baseline="middle" height="385" width="750" count="16" pid="p1" grid="10" stroke-width="2" stroke="yellow" fill="purple" font-size="24"><g><rect height="40" width="120" ry="4" rx="4" x="300" y="40" pid="p1" class="p1" text="p2" ship="[{&quot;pid&quot;:&quot;p7&quot;,&quot;which&quot;:1,&quot;anchor&quot;:8},{&quot;pid&quot;:&quot;p8&quot;,&quot;which&quot;:1,&quot;anchor&quot;:8},{&quot;pid&quot;:&quot;p9&quot;,&quot;which&quot;:1,&quot;anchor&quot;:8},{&quot;pid&quot;:&quot;p10&quot;,&quot;which&quot;:1,&quot;anchor&quot;:8}]"></rect><text x="360" y="60" pid="p2" class="p2">shy</text></g><rect height="40" width="120" ry="4" rx="4" x="490" y="160" text="p5" ship="[{&quot;pid&quot;:&quot;p10&quot;,&quot;which&quot;:2,&quot;anchor&quot;:2}]"></rect><rect height="40" width="120" ry="4" rx="4" x="300" y="160" text="p4" ship="[{&quot;pid&quot;:&quot;p9&quot;,&quot;which&quot;:2,&quot;anchor&quot;:2},{&quot;pid&quot;:&quot;p14&quot;,&quot;which&quot;:1,&quot;anchor&quot;:8},{&quot;pid&quot;:&quot;p15&quot;,&quot;which&quot;:1,&quot;anchor&quot;:8},{&quot;pid&quot;:&quot;p16&quot;,&quot;which&quot;:1,&quot;anchor&quot;:8}]"></rect><rect height="40" width="120" ry="4" rx="4" x="110" y="160" text="p3" ship="[{&quot;pid&quot;:&quot;p8&quot;,&quot;which&quot;:2,&quot;anchor&quot;:2}]"></rect><text x="170" y="180" pid="p3" class="p3">old</text><text x="360" y="180" pid="p4" class="p4">dev</text><text x="550" y="180" pid="p5" class="p5">com</text><g></g><line x1="360" y1="80" x2="360" y2="80" ship="[{&quot;pid&quot;:&quot;p1&quot;},{&quot;pid&quot;:&quot;&quot;}]" pid="p7" class="p7"></line><line x1="360" y1="80" x2="170" y2="160" ship="[{&quot;pid&quot;:&quot;p1&quot;},{&quot;pid&quot;:&quot;&quot;}]" pid="p8" class="p8"></line><line x1="360" y1="80" x2="360" y2="160" ship="[{&quot;pid&quot;:&quot;p1&quot;},{&quot;pid&quot;:&quot;&quot;}]" pid="p9" class="p9"></line><line x1="360" y1="80" x2="550" y2="160" ship="[{&quot;pid&quot;:&quot;p1&quot;},{&quot;pid&quot;:&quot;&quot;}]" pid="p10" class="p10"></line><g class="mac" stroke-width="2" stroke="black" fill="cyan" font-size="24" style="opacity: 1; display: block;"><rect height="40" width="120" ry="4" rx="4" x="300" y="260" text="p11" ship="[{&quot;pid&quot;:&quot;p15&quot;,&quot;which&quot;:2,&quot;anchor&quot;:2}]"></rect><text x="360" y="280" pid="p11" class="p11">MB2</text><rect height="40" width="120" ry="4" rx="4" x="490" y="260" text="p13" ship="[{&quot;pid&quot;:&quot;p16&quot;,&quot;which&quot;:2,&quot;anchor&quot;:2}]"></rect><rect height="40" width="120" ry="4" rx="4" x="110" y="260" text="p12" ship="[{&quot;pid&quot;:&quot;p14&quot;,&quot;which&quot;:2,&quot;anchor&quot;:2}]"></rect><text x="170" y="280" pid="p12" class="p12">MB1</text><text x="550" y="280" pid="p13" class="p13">MB0</text><line x1="360" y1="200" x2="170" y2="260" ship="[{&quot;pid&quot;:&quot;&quot;},{&quot;pid&quot;:&quot;&quot;}]" pid="p14" class="p14"></line><line x1="360" y1="200" x2="360" y2="260" ship="[{&quot;pid&quot;:&quot;&quot;},{&quot;pid&quot;:&quot;&quot;}]" pid="p15" class="p15"></line><line x1="360" y1="200" x2="550" y2="260" ship="[{&quot;pid&quot;:&quot;&quot;},{&quot;pid&quot;:&quot;&quot;}]" pid="p16" class="p16"></line></g></svg>